<svg aria-hidden="true" style="position: absolute; width: 0; height: 0; overflow: hidden;" version="1.1" xmlns="http://www.w3.org/2000/svg" xmlns:xlink="http://www.w3.org/1999/xlink">
<defs>
<symbol id="icon-mute-svg" viewBox="0 0 32 32">
<path fill="#fff" style="fill: var(--color1, #fff)" d="M25.231 16c0.005 1.934-0.753 3.791-2.11 5.168-0.172 0.171-0.405 0.267-0.647 0.268s-0.476-0.094-0.649-0.264c-0.173-0.17-0.273-0.401-0.277-0.643s0.087-0.477 0.255-0.652c1.014-1.035 1.582-2.426 1.582-3.876s-0.568-2.841-1.582-3.876c-0.167-0.176-0.259-0.41-0.255-0.652s0.104-0.474 0.277-0.643c0.173-0.17 0.406-0.265 0.649-0.264s0.475 0.097 0.647 0.268c1.356 1.377 2.115 3.234 2.11 5.167zM24.939 7.018c-0.179-0.167-0.417-0.257-0.661-0.249s-0.476 0.113-0.644 0.292c-0.168 0.179-0.257 0.417-0.249 0.661s0.113 0.476 0.292 0.644c1.070 0.963 1.926 2.14 2.512 3.456s0.889 2.739 0.889 4.179c0 1.44-0.303 2.863-0.889 4.179s-1.442 2.493-2.512 3.456c-0.179 0.168-0.283 0.399-0.291 0.644s0.082 0.483 0.249 0.661c0.167 0.179 0.399 0.283 0.644 0.291s0.482-0.082 0.661-0.249c1.255-1.136 2.257-2.522 2.944-4.068s1.041-3.22 1.041-4.912c0-1.692-0.355-3.366-1.041-4.913s-1.689-2.934-2.944-4.069zM19.692 6.695v18.609c-0.004 0.336-0.099 0.664-0.276 0.951s-0.427 0.519-0.725 0.674c-0.298 0.155-0.632 0.227-0.968 0.207s-0.659-0.13-0.937-0.32l-7.539-5.278h-3.402c-0.734 0-1.439-0.292-1.958-0.811s-0.811-1.224-0.811-1.958v-5.538c0-0.734 0.292-1.439 0.811-1.958s1.224-0.811 1.958-0.811h3.402l7.54-5.278c0.278-0.189 0.602-0.3 0.937-0.32s0.67 0.052 0.968 0.207c0.298 0.155 0.548 0.388 0.724 0.675s0.271 0.614 0.275 0.95zM8.615 12.308h-2.769c-0.245 0-0.48 0.097-0.653 0.27s-0.27 0.408-0.27 0.653v5.538c0 0.245 0.097 0.48 0.27 0.653s0.408 0.27 0.653 0.27h2.769v-7.385zM17.852 25.306l-0.005-18.61-7.385 5.169v8.27l7.39 5.171z">
</path>
</symbol>
<path id="Vector 2" d="M55.5 2L1.5 52.5" stroke="white" stroke-width="3"/>
</defs>
</svg>
